<svg xmlns="http://www.w3.org/2000/svg" xmlns:xlink="http://www.w3.org/1999/xlink" width="48" zoomAndPan="magnify" viewBox="0 0 36 36.000001" height="48" preserveAspectRatio="xMidYMid meet" version="1.0"><defs><g/></defs><g fill="#4caf50" fill-opacity="1"><g transform="translate(3.989189, 17.505206)"><g><path d="M 6.9375 -7.734375 C 7.601562 -7.734375 8.113281 -7.882812 8.46875 -8.1875 C 8.832031 -8.5 9.015625 -8.972656 9.015625 -9.609375 C 9.015625 -10.210938 8.828125 -10.675781 8.453125 -11 C 8.078125 -11.320312 7.535156 -11.484375 6.828125 -11.484375 C 6.566406 -11.484375 6.351562 -11.476562 6.1875 -11.46875 C 6.03125 -11.46875 5.863281 -11.453125 5.6875 -11.421875 L 5.6875 -7.734375 Z M 5.703125 -0.09375 C 5.535156 -0.0507812 5.265625 -0.00390625 4.890625 0.046875 C 4.515625 0.0976562 4.144531 0.125 3.78125 0.125 C 3.414062 0.125 3.09375 0.09375 2.8125 0.03125 C 2.539062 -0.0195312 2.304688 -0.113281 2.109375 -0.25 C 1.921875 -0.394531 1.78125 -0.59375 1.6875 -0.84375 C 1.59375 -1.101562 1.546875 -1.441406 1.546875 -1.859375 L 1.546875 -13.0625 C 1.546875 -13.394531 1.632812 -13.648438 1.8125 -13.828125 C 2 -14.015625 2.25 -14.160156 2.5625 -14.265625 C 3.101562 -14.453125 3.71875 -14.585938 4.40625 -14.671875 C 5.101562 -14.765625 5.800781 -14.8125 6.5 -14.8125 C 8.6875 -14.8125 10.359375 -14.34375 11.515625 -13.40625 C 12.671875 -12.476562 13.25 -11.210938 13.25 -9.609375 C 13.25 -8.828125 13.125 -8.125 12.875 -7.5 C 12.632812 -6.875 12.269531 -6.332031 11.78125 -5.875 C 11.300781 -5.425781 10.691406 -5.078125 9.953125 -4.828125 C 9.210938 -4.585938 8.359375 -4.46875 7.390625 -4.46875 L 5.703125 -4.46875 Z M 5.703125 -0.09375 "/></g></g></g><g fill="#4caf50" fill-opacity="1"><g transform="translate(17.085197, 17.505206)"><g><path d="M 4.609375 -13.984375 C 4.878906 -14.140625 5.285156 -14.289062 5.828125 -14.4375 C 6.378906 -14.582031 6.929688 -14.65625 7.484375 -14.65625 C 8.285156 -14.65625 8.988281 -14.535156 9.59375 -14.296875 C 10.207031 -14.066406 10.597656 -13.707031 10.765625 -13.21875 C 11.054688 -12.394531 11.367188 -11.4375 11.703125 -10.34375 C 12.035156 -9.25 12.367188 -8.117188 12.703125 -6.953125 C 13.035156 -5.785156 13.359375 -4.632812 13.671875 -3.5 C 13.992188 -2.375 14.269531 -1.375 14.5 -0.5 C 14.3125 -0.28125 14.023438 -0.101562 13.640625 0.03125 C 13.265625 0.164062 12.816406 0.234375 12.296875 0.234375 C 11.910156 0.234375 11.585938 0.203125 11.328125 0.140625 C 11.066406 0.078125 10.851562 -0.015625 10.6875 -0.140625 C 10.519531 -0.265625 10.382812 -0.429688 10.28125 -0.640625 C 10.175781 -0.847656 10.085938 -1.085938 10.015625 -1.359375 L 9.578125 -3 L 5.28125 -3 C 5.15625 -2.519531 5.023438 -2.023438 4.890625 -1.515625 C 4.765625 -1.015625 4.640625 -0.523438 4.515625 -0.046875 C 4.296875 0.0351562 4.0625 0.101562 3.8125 0.15625 C 3.570312 0.207031 3.273438 0.234375 2.921875 0.234375 C 2.117188 0.234375 1.519531 0.0976562 1.125 -0.171875 C 0.738281 -0.453125 0.546875 -0.835938 0.546875 -1.328125 C 0.546875 -1.554688 0.578125 -1.78125 0.640625 -2 C 0.703125 -2.21875 0.773438 -2.476562 0.859375 -2.78125 C 0.960938 -3.207031 1.113281 -3.738281 1.3125 -4.375 C 1.507812 -5.007812 1.726562 -5.691406 1.96875 -6.421875 C 2.207031 -7.160156 2.460938 -7.921875 2.734375 -8.703125 C 3.003906 -9.484375 3.257812 -10.21875 3.5 -10.90625 C 3.738281 -11.59375 3.957031 -12.207031 4.15625 -12.75 C 4.351562 -13.289062 4.503906 -13.703125 4.609375 -13.984375 Z M 7.46875 -10.921875 C 7.25 -10.253906 7 -9.507812 6.71875 -8.6875 C 6.4375 -7.875 6.1875 -7.046875 5.96875 -6.203125 L 8.921875 -6.203125 C 8.691406 -7.054688 8.460938 -7.890625 8.234375 -8.703125 C 8.003906 -9.523438 7.796875 -10.265625 7.609375 -10.921875 Z M 7.46875 -10.921875 "/></g></g></g><g fill="#4caf50" fill-opacity="1"><g transform="translate(4.402178, 32.82953)"><g/></g></g><g fill="#4caf50" fill-opacity="1"><g transform="translate(9.155851, 32.82953)"><g/></g></g><g fill="#4caf50" fill-opacity="1"><g transform="translate(13.909525, 32.82953)"><g/></g></g><g fill="#4caf50" fill-opacity="1"><g transform="translate(18.665714, 32.82953)"><g><path d="M 1.546875 -12.203125 C 1.546875 -12.878906 1.742188 -13.414062 2.140625 -13.8125 C 2.535156 -14.207031 3.070312 -14.40625 3.75 -14.40625 L 11.609375 -14.40625 C 11.710938 -14.238281 11.804688 -14.007812 11.890625 -13.71875 C 11.984375 -13.4375 12.03125 -13.132812 12.03125 -12.8125 C 12.03125 -12.21875 11.898438 -11.789062 11.640625 -11.53125 C 11.378906 -11.28125 11.035156 -11.15625 10.609375 -11.15625 L 5.59375 -11.15625 L 5.59375 -8.9375 L 10.9375 -8.9375 C 11.050781 -8.769531 11.148438 -8.546875 11.234375 -8.265625 C 11.328125 -7.984375 11.375 -7.6875 11.375 -7.375 C 11.375 -6.769531 11.242188 -6.335938 10.984375 -6.078125 C 10.734375 -5.828125 10.394531 -5.703125 9.96875 -5.703125 L 5.59375 -5.703125 L 5.59375 -3.203125 L 11.703125 -3.203125 C 11.804688 -3.035156 11.898438 -2.804688 11.984375 -2.515625 C 12.078125 -2.234375 12.125 -1.929688 12.125 -1.609375 C 12.125 -1.015625 11.992188 -0.582031 11.734375 -0.3125 C 11.472656 -0.0507812 11.128906 0.078125 10.703125 0.078125 L 3.75 0.078125 C 3.070312 0.078125 2.535156 -0.117188 2.140625 -0.515625 C 1.742188 -0.921875 1.546875 -1.460938 1.546875 -2.140625 Z M 1.546875 -12.203125 "/></g></g></g><g fill="#4caf50" fill-opacity="1"><g transform="translate(7.747344, 33.805951)"><g><path d="M 9.234375 -3.1875 C 9.085938 -2.957031 8.816406 -2.710938 8.421875 -2.453125 C 8.023438 -2.191406 7.570312 -1.988281 7.0625 -1.84375 C 6.457031 -1.65625 5.90625 -1.585938 5.40625 -1.640625 C 4.914062 -1.703125 4.546875 -1.867188 4.296875 -2.140625 C 4.023438 -2.429688 3.691406 -2.804688 3.296875 -3.265625 C 2.910156 -3.722656 2.492188 -4.242188 2.046875 -4.828125 C 1.597656 -5.410156 1.132812 -6.03125 0.65625 -6.6875 C 0.175781 -7.351562 -0.296875 -8.023438 -0.765625 -8.703125 C -1.234375 -9.390625 -1.6875 -10.066406 -2.125 -10.734375 C -2.5625 -11.398438 -2.953125 -12.03125 -3.296875 -12.625 C -3.160156 -12.882812 -2.921875 -13.15625 -2.578125 -13.4375 C -2.242188 -13.726562 -1.863281 -13.9375 -1.4375 -14.0625 C -0.894531 -14.21875 -0.414062 -14.226562 0 -14.09375 C 0.40625 -13.96875 0.785156 -13.625 1.140625 -13.0625 C 1.941406 -11.75 2.734375 -10.5 3.515625 -9.3125 C 4.304688 -8.132812 5.125 -6.894531 5.96875 -5.59375 L 6.109375 -5.625 C 6.097656 -7.125 6.066406 -8.742188 6.015625 -10.484375 C 5.960938 -12.222656 5.882812 -13.953125 5.78125 -15.671875 C 6.007812 -15.878906 6.257812 -16.070312 6.53125 -16.25 C 6.800781 -16.425781 7.125 -16.570312 7.5 -16.6875 C 8.039062 -16.84375 8.535156 -16.851562 8.984375 -16.71875 C 9.429688 -16.582031 9.738281 -16.238281 9.90625 -15.6875 C 10 -15.363281 10.054688 -14.875 10.078125 -14.21875 C 10.109375 -13.5625 10.117188 -12.816406 10.109375 -11.984375 C 10.097656 -11.148438 10.0625 -10.269531 10 -9.34375 C 9.9375 -8.425781 9.863281 -7.550781 9.78125 -6.71875 C 9.707031 -5.894531 9.625 -5.164062 9.53125 -4.53125 C 9.4375 -3.90625 9.335938 -3.457031 9.234375 -3.1875 Z M 9.234375 -3.1875 "/></g></g></g></svg>